<svg width="192" height="192" viewBox="0 0 192 192" fill="none" xmlns="http://www.w3.org/2000/svg">
<rect width="192" height="192" fill="white"/>
<path d="M169.677 67.8041C153.973 52.0666 128.37 52.0666 112.632 67.8041L90.1495 90.2862C90.0488 90.3869 90.0153 90.5211 89.9482 90.6218L67.768 112.769C58.9765 121.56 43.6415 121.56 34.8491 112.769C25.7892 103.675 25.7892 88.9105 34.8491 79.8497C43.909 70.7889 58.7071 70.7898 67.768 79.8497C71.0899 83.1716 76.4925 83.1716 79.8145 79.8497C83.1364 76.5277 83.1364 71.1251 79.8145 67.8032C64.1104 52.0656 38.5079 52.0656 22.8032 67.8032C7.06561 83.5407 7.06561 109.11 22.8032 124.848C30.4202 132.465 40.5539 136.66 51.3254 136.66C62.0969 136.66 72.2306 132.465 79.8476 124.848L102.33 102.366C102.43 102.265 102.464 102.131 102.531 102.031L124.711 79.8504C133.771 70.7905 148.569 70.7905 157.63 79.8504C166.69 88.944 166.69 103.708 157.63 112.769C148.839 121.561 133.504 121.561 124.711 112.769C121.389 109.447 115.987 109.447 112.665 112.769C109.343 116.091 109.343 121.494 112.665 124.816C120.282 132.433 130.415 136.627 141.187 136.627C151.958 136.627 162.092 132.433 169.709 124.816C185.38 109.112 185.38 83.5092 169.676 67.8045L169.677 67.8041Z" fill="#5E55DF"/>
</svg>
